<mxfile host="app.diagrams.net" agent="Mozilla/5.0 (Macintosh; Intel Mac OS X 10_15_7) AppleWebKit/537.36 (KHTML, like Gecko) Chrome/134.0.0.0 Safari/537.36" version="26.1.1">
  <diagram name="Page-1" id="km6E1M64rALg_5mmkDEA">
    <mxGraphModel dx="1312" dy="1216" grid="1" gridSize="10" guides="1" tooltips="1" connect="1" arrows="1" fold="1" page="1" pageScale="1" pageWidth="600" pageHeight="400" math="0" shadow="0">
      <root>
        <mxCell id="0" />
        <mxCell id="1" parent="0" />
        <mxCell id="8F1Tgc2FaBbOlvArSYMp-119" value="" style="edgeStyle=orthogonalEdgeStyle;rounded=0;orthogonalLoop=1;jettySize=auto;html=1;" edge="1" parent="1" source="8F1Tgc2FaBbOlvArSYMp-117" target="8F1Tgc2FaBbOlvArSYMp-118">
          <mxGeometry relative="1" as="geometry" />
        </mxCell>
        <mxCell id="8F1Tgc2FaBbOlvArSYMp-117" value="Start" style="ellipse;whiteSpace=wrap;html=1;" vertex="1" parent="1">
          <mxGeometry x="280" y="100" width="120" height="80" as="geometry" />
        </mxCell>
        <mxCell id="8F1Tgc2FaBbOlvArSYMp-131" value="" style="edgeStyle=orthogonalEdgeStyle;rounded=0;orthogonalLoop=1;jettySize=auto;html=1;" edge="1" parent="1" source="8F1Tgc2FaBbOlvArSYMp-118" target="8F1Tgc2FaBbOlvArSYMp-130">
          <mxGeometry relative="1" as="geometry" />
        </mxCell>
        <mxCell id="8F1Tgc2FaBbOlvArSYMp-145" value="" style="edgeStyle=orthogonalEdgeStyle;rounded=0;orthogonalLoop=1;jettySize=auto;html=1;" edge="1" parent="1" source="8F1Tgc2FaBbOlvArSYMp-118" target="8F1Tgc2FaBbOlvArSYMp-144">
          <mxGeometry relative="1" as="geometry" />
        </mxCell>
        <mxCell id="8F1Tgc2FaBbOlvArSYMp-118" value="Enter the Website" style="rounded=1;whiteSpace=wrap;html=1;" vertex="1" parent="1">
          <mxGeometry x="280" y="270" width="120" height="60" as="geometry" />
        </mxCell>
        <mxCell id="8F1Tgc2FaBbOlvArSYMp-125" value="" style="edgeStyle=orthogonalEdgeStyle;rounded=0;orthogonalLoop=1;jettySize=auto;html=1;" edge="1" parent="1" target="8F1Tgc2FaBbOlvArSYMp-124">
          <mxGeometry relative="1" as="geometry">
            <mxPoint x="340" y="470" as="sourcePoint" />
          </mxGeometry>
        </mxCell>
        <mxCell id="8F1Tgc2FaBbOlvArSYMp-127" value="" style="edgeStyle=orthogonalEdgeStyle;rounded=0;orthogonalLoop=1;jettySize=auto;html=1;" edge="1" parent="1" source="8F1Tgc2FaBbOlvArSYMp-124" target="8F1Tgc2FaBbOlvArSYMp-126">
          <mxGeometry relative="1" as="geometry" />
        </mxCell>
        <mxCell id="8F1Tgc2FaBbOlvArSYMp-124" value="Tutoring Session Detail" style="whiteSpace=wrap;html=1;rounded=1;" vertex="1" parent="1">
          <mxGeometry x="280" y="550" width="120" height="60" as="geometry" />
        </mxCell>
        <mxCell id="8F1Tgc2FaBbOlvArSYMp-137" value="" style="edgeStyle=orthogonalEdgeStyle;rounded=0;orthogonalLoop=1;jettySize=auto;html=1;" edge="1" parent="1" source="8F1Tgc2FaBbOlvArSYMp-126" target="8F1Tgc2FaBbOlvArSYMp-136">
          <mxGeometry relative="1" as="geometry" />
        </mxCell>
        <mxCell id="8F1Tgc2FaBbOlvArSYMp-126" value="Register a Tutoring Session" style="shape=parallelogram;perimeter=parallelogramPerimeter;whiteSpace=wrap;html=1;fixedSize=1;rounded=1;" vertex="1" parent="1">
          <mxGeometry x="280" y="690" width="120" height="60" as="geometry" />
        </mxCell>
        <mxCell id="8F1Tgc2FaBbOlvArSYMp-130" value="Select a Tutoring Session" style="shape=parallelogram;perimeter=parallelogramPerimeter;whiteSpace=wrap;html=1;fixedSize=1;rounded=1;" vertex="1" parent="1">
          <mxGeometry x="280" y="410" width="120" height="60" as="geometry" />
        </mxCell>
        <mxCell id="8F1Tgc2FaBbOlvArSYMp-141" value="" style="edgeStyle=orthogonalEdgeStyle;rounded=0;orthogonalLoop=1;jettySize=auto;html=1;" edge="1" parent="1" source="8F1Tgc2FaBbOlvArSYMp-136" target="8F1Tgc2FaBbOlvArSYMp-140">
          <mxGeometry relative="1" as="geometry" />
        </mxCell>
        <mxCell id="8F1Tgc2FaBbOlvArSYMp-136" value="Registration Info" style="whiteSpace=wrap;html=1;rounded=1;" vertex="1" parent="1">
          <mxGeometry x="280" y="830" width="120" height="60" as="geometry" />
        </mxCell>
        <mxCell id="8F1Tgc2FaBbOlvArSYMp-140" value="End" style="ellipse;whiteSpace=wrap;html=1;" vertex="1" parent="1">
          <mxGeometry x="280" y="950" width="120" height="80" as="geometry" />
        </mxCell>
        <mxCell id="8F1Tgc2FaBbOlvArSYMp-147" value="" style="edgeStyle=orthogonalEdgeStyle;rounded=0;orthogonalLoop=1;jettySize=auto;html=1;" edge="1" parent="1" source="8F1Tgc2FaBbOlvArSYMp-144" target="8F1Tgc2FaBbOlvArSYMp-146">
          <mxGeometry relative="1" as="geometry" />
        </mxCell>
        <mxCell id="8F1Tgc2FaBbOlvArSYMp-144" value="Tutor Page" style="whiteSpace=wrap;html=1;rounded=1;" vertex="1" parent="1">
          <mxGeometry x="480" y="270" width="120" height="60" as="geometry" />
        </mxCell>
        <mxCell id="8F1Tgc2FaBbOlvArSYMp-146" value="Login?" style="rhombus;whiteSpace=wrap;html=1;rounded=1;" vertex="1" parent="1">
          <mxGeometry x="700" y="260" width="80" height="80" as="geometry" />
        </mxCell>
        <mxCell id="8F1Tgc2FaBbOlvArSYMp-149" value="No" style="edgeStyle=orthogonalEdgeStyle;rounded=0;html=1;jettySize=auto;orthogonalLoop=1;fontSize=11;endArrow=block;endFill=0;endSize=8;strokeWidth=1;shadow=0;labelBackgroundColor=none;" edge="1" parent="1">
          <mxGeometry y="10" relative="1" as="geometry">
            <mxPoint as="offset" />
            <mxPoint x="776" y="299.5" as="sourcePoint" />
            <mxPoint x="826" y="299.5" as="targetPoint" />
          </mxGeometry>
        </mxCell>
        <mxCell id="8F1Tgc2FaBbOlvArSYMp-156" value="" style="edgeStyle=orthogonalEdgeStyle;rounded=0;orthogonalLoop=1;jettySize=auto;html=1;" edge="1" parent="1" source="8F1Tgc2FaBbOlvArSYMp-154" target="8F1Tgc2FaBbOlvArSYMp-155">
          <mxGeometry relative="1" as="geometry" />
        </mxCell>
        <mxCell id="8F1Tgc2FaBbOlvArSYMp-154" value="Login" style="rounded=1;whiteSpace=wrap;html=1;" vertex="1" parent="1">
          <mxGeometry x="825" y="270" width="120" height="60" as="geometry" />
        </mxCell>
        <mxCell id="8F1Tgc2FaBbOlvArSYMp-161" value="" style="edgeStyle=orthogonalEdgeStyle;rounded=0;orthogonalLoop=1;jettySize=auto;html=1;" edge="1" parent="1" source="8F1Tgc2FaBbOlvArSYMp-155" target="8F1Tgc2FaBbOlvArSYMp-160">
          <mxGeometry relative="1" as="geometry" />
        </mxCell>
        <mxCell id="8F1Tgc2FaBbOlvArSYMp-155" value="Email Address,&lt;div&gt;Password&lt;/div&gt;" style="shape=parallelogram;perimeter=parallelogramPerimeter;whiteSpace=wrap;html=1;fixedSize=1;rounded=1;" vertex="1" parent="1">
          <mxGeometry x="825" y="410" width="120" height="60" as="geometry" />
        </mxCell>
        <mxCell id="8F1Tgc2FaBbOlvArSYMp-158" value="Yes" style="edgeStyle=orthogonalEdgeStyle;rounded=0;html=1;jettySize=auto;orthogonalLoop=1;fontSize=11;endArrow=block;endFill=0;endSize=8;strokeWidth=1;shadow=0;labelBackgroundColor=none;entryX=0.5;entryY=0;entryDx=0;entryDy=0;" edge="1" parent="1" target="8F1Tgc2FaBbOlvArSYMp-160">
          <mxGeometry y="10" relative="1" as="geometry">
            <mxPoint as="offset" />
            <mxPoint x="740" y="337" as="sourcePoint" />
            <mxPoint x="740" y="407" as="targetPoint" />
            <Array as="points" />
          </mxGeometry>
        </mxCell>
        <mxCell id="8F1Tgc2FaBbOlvArSYMp-164" value="" style="edgeStyle=orthogonalEdgeStyle;rounded=0;orthogonalLoop=1;jettySize=auto;html=1;" edge="1" parent="1" source="8F1Tgc2FaBbOlvArSYMp-160" target="8F1Tgc2FaBbOlvArSYMp-163">
          <mxGeometry relative="1" as="geometry" />
        </mxCell>
        <mxCell id="8F1Tgc2FaBbOlvArSYMp-167" style="edgeStyle=orthogonalEdgeStyle;rounded=0;orthogonalLoop=1;jettySize=auto;html=1;" edge="1" parent="1" source="8F1Tgc2FaBbOlvArSYMp-160" target="8F1Tgc2FaBbOlvArSYMp-165">
          <mxGeometry relative="1" as="geometry" />
        </mxCell>
        <mxCell id="8F1Tgc2FaBbOlvArSYMp-160" value="Admin Page" style="whiteSpace=wrap;html=1;rounded=1;" vertex="1" parent="1">
          <mxGeometry x="680" y="410" width="120" height="60" as="geometry" />
        </mxCell>
        <mxCell id="8F1Tgc2FaBbOlvArSYMp-169" value="" style="edgeStyle=orthogonalEdgeStyle;rounded=0;orthogonalLoop=1;jettySize=auto;html=1;" edge="1" parent="1" source="8F1Tgc2FaBbOlvArSYMp-163" target="8F1Tgc2FaBbOlvArSYMp-168">
          <mxGeometry relative="1" as="geometry" />
        </mxCell>
        <mxCell id="8F1Tgc2FaBbOlvArSYMp-163" value="Tutoring Session Management" style="whiteSpace=wrap;html=1;rounded=1;" vertex="1" parent="1">
          <mxGeometry x="560" y="550" width="120" height="60" as="geometry" />
        </mxCell>
        <mxCell id="8F1Tgc2FaBbOlvArSYMp-171" value="" style="edgeStyle=orthogonalEdgeStyle;rounded=0;orthogonalLoop=1;jettySize=auto;html=1;" edge="1" parent="1" source="8F1Tgc2FaBbOlvArSYMp-165" target="8F1Tgc2FaBbOlvArSYMp-170">
          <mxGeometry relative="1" as="geometry" />
        </mxCell>
        <mxCell id="8F1Tgc2FaBbOlvArSYMp-165" value="Student Registration Management" style="rounded=1;whiteSpace=wrap;html=1;" vertex="1" parent="1">
          <mxGeometry x="790" y="550" width="120" height="60" as="geometry" />
        </mxCell>
        <mxCell id="8F1Tgc2FaBbOlvArSYMp-173" value="" style="edgeStyle=orthogonalEdgeStyle;rounded=0;orthogonalLoop=1;jettySize=auto;html=1;" edge="1" parent="1" source="8F1Tgc2FaBbOlvArSYMp-168" target="8F1Tgc2FaBbOlvArSYMp-172">
          <mxGeometry relative="1" as="geometry" />
        </mxCell>
        <mxCell id="8F1Tgc2FaBbOlvArSYMp-168" value="Check, Add, Update, Delete a Tutoring Session" style="shape=parallelogram;perimeter=parallelogramPerimeter;whiteSpace=wrap;html=1;fixedSize=1;rounded=1;" vertex="1" parent="1">
          <mxGeometry x="560" y="690" width="120" height="60" as="geometry" />
        </mxCell>
        <mxCell id="8F1Tgc2FaBbOlvArSYMp-175" value="" style="edgeStyle=orthogonalEdgeStyle;rounded=0;orthogonalLoop=1;jettySize=auto;html=1;" edge="1" parent="1" source="8F1Tgc2FaBbOlvArSYMp-170" target="8F1Tgc2FaBbOlvArSYMp-174">
          <mxGeometry relative="1" as="geometry" />
        </mxCell>
        <mxCell id="8F1Tgc2FaBbOlvArSYMp-170" value="Check the Student Registration" style="shape=parallelogram;perimeter=parallelogramPerimeter;whiteSpace=wrap;html=1;fixedSize=1;rounded=1;" vertex="1" parent="1">
          <mxGeometry x="790" y="690" width="120" height="60" as="geometry" />
        </mxCell>
        <mxCell id="8F1Tgc2FaBbOlvArSYMp-178" value="" style="edgeStyle=orthogonalEdgeStyle;rounded=0;orthogonalLoop=1;jettySize=auto;html=1;entryX=0.5;entryY=0;entryDx=0;entryDy=0;" edge="1" parent="1" source="8F1Tgc2FaBbOlvArSYMp-172" target="8F1Tgc2FaBbOlvArSYMp-176">
          <mxGeometry relative="1" as="geometry">
            <mxPoint x="620" y="1000" as="targetPoint" />
          </mxGeometry>
        </mxCell>
        <mxCell id="8F1Tgc2FaBbOlvArSYMp-172" value="Tutoring Session Info" style="whiteSpace=wrap;html=1;rounded=1;" vertex="1" parent="1">
          <mxGeometry x="560" y="830" width="120" height="60" as="geometry" />
        </mxCell>
        <mxCell id="8F1Tgc2FaBbOlvArSYMp-179" style="edgeStyle=orthogonalEdgeStyle;rounded=0;orthogonalLoop=1;jettySize=auto;html=1;entryX=0.5;entryY=0;entryDx=0;entryDy=0;" edge="1" parent="1" source="8F1Tgc2FaBbOlvArSYMp-174" target="8F1Tgc2FaBbOlvArSYMp-176">
          <mxGeometry relative="1" as="geometry" />
        </mxCell>
        <mxCell id="8F1Tgc2FaBbOlvArSYMp-174" value="Student Registration Info" style="whiteSpace=wrap;html=1;rounded=1;" vertex="1" parent="1">
          <mxGeometry x="790" y="830" width="120" height="60" as="geometry" />
        </mxCell>
        <mxCell id="8F1Tgc2FaBbOlvArSYMp-176" value="End" style="ellipse;whiteSpace=wrap;html=1;" vertex="1" parent="1">
          <mxGeometry x="674" y="950" width="120" height="80" as="geometry" />
        </mxCell>
      </root>
    </mxGraphModel>
  </diagram>
</mxfile>
